<svg width="91" height="72" viewBox="0 0 91 72" fill="none" xmlns="http://www.w3.org/2000/svg">
<g clip-path="url(#clip0_68711_3)">
<path d="M70.0064 46.0833C74.4696 31.5396 73.4468 18.3254 67.7219 16.5685C61.997 14.8117 53.7379 25.1774 49.2747 39.7211C44.8115 54.2648 45.8343 67.479 51.5592 69.2358C57.2842 70.9927 65.5432 60.627 70.0064 46.0833Z" fill="#303646"/>
<path d="M68.3011 45.5607C72.7643 31.017 72.0773 17.9059 66.7667 16.2761C61.4561 14.6464 53.5328 25.1152 49.0696 39.6588C44.6064 54.2025 45.2934 67.3137 50.604 68.9434C55.9147 70.5731 63.8379 60.1043 68.3011 45.5607Z" fill="white"/>
<path d="M66.6983 45.069C70.6431 32.2147 70.036 20.6266 65.3423 19.1862C60.6487 17.7458 53.6459 26.9986 49.7012 39.8529C45.7564 52.7071 46.3635 64.2952 51.0572 65.7356C55.7508 67.176 62.7536 57.9232 66.6983 45.069Z" fill="#CD2B31"/>
<path d="M64.7034 44.4539C67.9146 33.9899 67.4203 24.5564 63.5993 23.3838C59.7782 22.2112 54.0775 29.7435 50.8662 40.2076C47.655 50.6717 48.1493 60.1051 51.9703 61.2777C55.7913 62.4503 61.4921 54.918 64.7034 44.4539Z" fill="white"/>
<path d="M63.4077 43.5079C66.0199 35.0104 65.6219 27.3484 62.5188 26.3945C59.4157 25.4406 54.7825 31.5559 52.1703 40.0535C49.558 48.551 49.956 56.213 53.0591 57.1669C56.1623 58.1208 60.7955 52.0055 63.4077 43.5079Z" fill="#CD2B31"/>
<path d="M60.6904 43.2246C62.4347 37.5408 62.1659 32.4168 60.0902 31.7797C58.0144 31.1427 54.9176 35.2339 53.1734 40.9177C51.4291 46.6015 51.6979 51.7255 53.7737 52.3625C55.8494 52.9996 58.9462 48.9084 60.6904 43.2246Z" fill="white"/>
<path d="M59.3449 42.2595C60.2261 39.3931 60.0915 36.8085 59.0444 36.4866C57.9973 36.1647 56.4341 38.2274 55.553 41.0938C54.6718 43.9601 54.8064 46.5447 55.8535 46.8666C56.9006 47.1885 58.4638 45.1258 59.3449 42.2595Z" fill="#CD2B31"/>
<path d="M54.0144 38.2201C53.3851 39.0194 51.4945 41.1795 51.5359 41.545C51.5773 41.9105 54.0224 41.1812 54.1428 40.5542C54.2633 39.9272 54.0144 38.2201 54.0144 38.2201Z" fill="#BAB3B4"/>
<path d="M9.01541 17.5357C9.24665 17.445 12.0645 16.4308 12.7007 16.5717C13.1322 16.6921 13.5263 16.9192 13.8468 17.2322C12.0226 18.1478 10.8969 18.7112 10.066 18.2456C9.63417 18.0018 9.30653 17.8427 9.12276 17.7357C8.93899 17.6287 8.90418 17.5812 9.01541 17.5357Z" fill="white"/>
<path opacity="0.09" d="M9.01557 17.5356C9.24682 17.4449 12.0647 16.4306 12.7008 16.5716C12.5229 16.9427 10.1228 18.2021 9.12292 17.7356C8.9557 17.6352 8.90435 17.581 9.01557 17.5356Z" fill="#1F1F39"/>
<path d="M7.91717 16.8781C8.14494 16.7856 10.9663 15.7732 11.599 15.9123C12.0396 16.0388 12.4404 16.2764 12.7628 16.6023C10.9386 17.5179 9.79928 18.0651 8.96514 17.5889C8.53511 17.3416 8.20832 17.1851 8.02455 17.0781C7.84078 16.9712 7.80513 16.9209 7.91717 16.8781Z" fill="white"/>
<path opacity="0.09" d="M7.91705 16.878C8.14482 16.7855 10.9662 15.7731 11.5989 15.9122C11.4209 16.2833 10.0995 17.1593 8.02443 17.078C7.85189 16.9793 7.80501 16.9208 7.91705 16.878Z" fill="#1F1F39"/>
<path d="M6.67251 16.0961C7.15351 16.0655 7.62635 15.957 8.07258 15.7749L8.0912 15.7692C9.03481 15.4007 10.0367 15.0611 10.3543 15.1302C10.8282 15.2839 11.2562 15.5536 11.5993 15.9148C9.7759 16.833 8.55543 17.2857 7.71967 16.8042C7.28965 16.5569 6.96285 16.4004 6.77908 16.2934L6.72191 16.2584C6.59716 16.183 6.57379 16.1348 6.67251 16.0961Z" fill="white"/>
<path opacity="0.09" d="M6.67251 16.0961C7.15351 16.0655 7.62635 15.957 8.07258 15.7749L8.0912 15.7692C9.0575 15.4084 10.074 15.0788 10.3917 15.1479C10.2138 15.519 8.41762 16.3068 6.8146 16.3146L6.72272 16.2611C6.59716 16.183 6.57379 16.1348 6.67251 16.0961Z" fill="#1F1F39"/>
<path d="M5.4369 15.3321C5.66814 15.2414 8.486 14.2272 9.12136 14.3654C9.58867 14.5159 10.0121 14.7786 10.3545 15.1304C8.53033 16.0459 7.31901 16.5191 6.48754 16.042C6.05566 15.7982 5.72802 15.6391 5.54425 15.5321C5.36048 15.4251 5.32486 15.3749 5.4369 15.3321Z" fill="white"/>
<path opacity="0.23" d="M5.43706 15.332C5.66831 15.2413 8.48617 14.227 9.12152 14.3653C8.94359 14.7364 6.9121 14.9705 5.54441 15.532C5.37719 15.4316 5.32503 15.3748 5.43706 15.332Z" fill="#1F1F39"/>
<path d="M8.28104 13.667C8.34959 13.8482 8.46543 14.0078 8.6165 14.1291C9.49365 14.9093 53.0789 41.2442 53.189 41.4055C53.1971 41.4322 53.2464 41.4317 53.3058 41.4165C53.3885 41.3948 53.4673 41.36 53.5391 41.3136C53.9039 41.0979 54.3508 40.6071 53.8633 40.1709C53.8195 40.1309 53.7725 40.0946 53.7227 40.0624C53.7227 40.0624 10.3502 12.9736 9.49356 12.8823C8.81422 12.8097 8.11272 13.1423 8.28104 13.667Z" fill="#543237"/>
<path d="M12.5992 11.6205C12.6217 11.8667 12.9964 14.8384 13.4082 15.3413C13.7114 15.6723 14.0932 15.9213 14.5184 16.0652C14.5106 14.0317 14.5081 12.7616 13.7095 12.2396C13.2951 11.9672 13.0069 11.7466 12.8276 11.6354C12.6484 11.5241 12.5857 11.4996 12.5992 11.6205Z" fill="white"/>
<path opacity="0.09" d="M12.5993 11.6206C12.6219 11.8668 12.9965 14.8385 13.4084 15.3414C13.6598 15.0206 13.6938 12.3026 12.8253 11.6275C12.6575 11.5156 12.5858 11.4997 12.5993 11.6206Z" fill="#1F1F39"/>
<path d="M11.513 10.936C11.5355 11.1822 11.9102 14.1539 12.322 14.6568C12.6345 14.9916 13.0276 15.2405 13.4639 15.3797C13.456 13.3463 13.4245 12.0763 12.6216 11.5498C12.2072 11.2774 11.9191 11.0568 11.7398 10.9456C11.5606 10.8343 11.5003 10.8177 11.513 10.936Z" fill="white"/>
<path opacity="0.09" d="M11.5129 10.936C11.5354 11.1821 11.9101 14.1538 12.3219 14.6568C12.5733 14.336 12.7524 12.7546 11.7381 10.9402C11.5719 10.8337 11.5002 10.8177 11.5129 10.936Z" fill="#1F1F39"/>
<path d="M10.2513 10.1827C10.4435 10.6241 10.5619 11.0941 10.6018 11.5739C10.6018 11.5739 10.6059 11.5872 10.6083 11.5951C10.7076 12.6003 10.8577 13.6482 11.0657 13.9019C11.4171 14.2539 11.8507 14.5128 12.3273 14.6552C12.3195 12.6218 12.1682 11.3213 11.3653 10.7949C10.9501 10.5198 10.662 10.2992 10.4862 10.1898L10.429 10.1548C10.2946 10.0765 10.2419 10.0751 10.2513 10.1827Z" fill="white"/>
<path opacity="0.09" d="M10.2513 10.1827C10.4434 10.6241 10.5618 11.0941 10.6018 11.5738C10.6018 11.5738 10.6058 11.5871 10.6082 11.5951C10.7247 12.6183 10.8913 13.6728 11.0985 13.9239C11.3499 13.6031 11.2347 11.6372 10.5155 10.2099L10.4273 10.1495C10.2946 10.0765 10.2418 10.0751 10.2513 10.1827Z" fill="#1F1F39"/>
<path d="M9.00915 9.42627C9.03249 9.6751 9.40718 12.6468 9.82086 13.1462C10.1658 13.4964 10.5914 13.7564 11.0604 13.9034C11.0525 11.87 10.918 10.5673 10.1204 10.0392C9.70602 9.76685 9.41791 9.54622 9.23865 9.43497C9.0594 9.32373 8.99909 9.30718 9.00915 9.42627Z" fill="white"/>
<path opacity="0.23" d="M9.00897 9.4262C9.03231 9.67503 9.407 12.6467 9.82067 13.1462C10.0721 12.8254 9.35712 10.9053 9.23766 9.43225C9.07067 9.32309 8.99891 9.30711 9.00897 9.4262Z" fill="#1F1F39"/>
<path opacity="0.47" d="M8.28076 13.6671C8.34931 13.8484 8.46515 14.008 8.61622 14.1293C9.49337 14.9094 53.0786 41.2443 53.1887 41.4057C53.2209 41.4541 53.3716 41.414 53.5388 41.3137C48.4333 38.0391 12.3336 15.9765 8.28076 13.6671Z" fill="#1F1F39"/>
<path d="M51.4266 41.712C51.3817 42.2434 56.9176 43.2233 57.3506 42.9259L57.3693 42.9202C57.6651 42.583 54.2965 38.1634 54.0167 38.2282C53.7368 38.2929 53.6077 39.8474 53.2091 40.5736L53.1958 40.5776C52.7959 41.2897 51.455 41.337 51.4266 41.712Z" fill="white"/>
<path opacity="0.22" d="M51.4265 41.712C51.3816 42.2433 56.9176 43.2233 57.3506 42.9258C55.7199 41.6478 54.1286 40.8144 53.1965 40.5803C52.7958 41.2896 51.4549 41.3369 51.4265 41.712Z" fill="#1F1F39"/>
</g>
<defs>
<clipPath id="clip0_68711_3">
<rect width="91" height="72" fill="white"/>
</clipPath>
</defs>
</svg>
