<svg width="126" height="103" viewBox="0 0 126 103" fill="none" xmlns="http://www.w3.org/2000/svg">
<g clip-path="url(#clip0_68388_4)">
<path d="M92.6165 57.6202C98.7437 37.6541 97.3395 19.5132 89.4802 17.1013C81.6208 14.6894 70.2824 28.9199 64.1551 48.886C58.0279 68.8521 59.4321 86.993 67.2915 89.4049C75.1508 91.8168 86.4892 77.5863 92.6165 57.6202Z" fill="#303646"/>
<path d="M90.2754 56.9027C96.4027 36.9366 95.4595 18.9371 88.1689 16.6997C80.8782 14.4624 70.0009 28.8343 63.8736 48.8004C57.7464 68.7665 58.6895 86.766 65.9802 89.0034C73.2708 91.2407 84.1482 76.8688 90.2754 56.9027Z" fill="white"/>
<path d="M88.0745 56.2278C93.49 38.581 92.6566 22.6724 86.213 20.695C79.7694 18.7176 70.1557 31.4201 64.7402 49.0669C59.3247 66.7137 60.1581 82.6223 66.6018 84.5998C73.0454 86.5772 82.659 73.8746 88.0745 56.2278Z" fill="#CD2B31"/>
<path d="M85.3356 55.3833C89.7442 41.0178 89.0655 28.0673 83.8199 26.4575C78.5743 24.8477 70.748 35.1882 66.3395 49.5537C61.931 63.9193 62.6096 76.8698 67.8552 78.4796C73.1009 80.0894 80.9271 69.7488 85.3356 55.3833Z" fill="white"/>
<path d="M83.5574 54.0846C87.1436 42.4188 86.5972 31.9002 82.3371 30.5906C78.077 29.281 71.7164 37.6764 68.1303 49.3422C64.5441 61.008 65.0904 71.5266 69.3505 72.8362C73.6106 74.1458 79.9713 65.7504 83.5574 54.0846Z" fill="#CD2B31"/>
<path d="M79.8266 53.6957C82.2212 45.8928 81.8522 38.8583 79.0025 37.9838C76.1528 37.1092 71.9015 42.7258 69.5069 50.5287C67.1123 58.3317 67.4813 65.3661 70.331 66.2406C73.1807 67.1151 77.432 61.4986 79.8266 53.6957Z" fill="white"/>
<path d="M77.9793 52.3707C79.1889 48.4357 79.0042 44.8875 77.5667 44.4455C76.1292 44.0036 73.9832 46.8354 72.7735 50.7704C71.5639 54.7055 71.7486 58.2537 73.1861 58.6956C74.6237 59.1375 76.7696 56.3058 77.9793 52.3707Z" fill="#CD2B31"/>
<path d="M70.6614 46.8254C69.7974 47.9226 67.202 50.8881 67.2588 51.3899C67.3156 51.8916 70.6723 50.8905 70.8377 50.0297C71.003 49.1689 70.6614 46.8254 70.6614 46.8254Z" fill="#BAB3B4"/>
<path d="M8.88568 18.4289C9.20314 18.3044 13.0716 16.912 13.945 17.1055C14.5373 17.2707 15.0784 17.5826 15.5184 18.0123C13.0141 19.2692 11.4687 20.0427 10.328 19.4035C9.73513 19.0688 9.28534 18.8503 9.03305 18.7035C8.78077 18.5566 8.73298 18.4913 8.88568 18.4289Z" fill="white"/>
<path opacity="0.09" d="M8.88573 18.4289C9.20319 18.3043 13.0717 16.912 13.945 17.1054C13.7007 17.6149 10.4058 19.3439 9.03311 18.7034C8.80354 18.5657 8.73304 18.4913 8.88573 18.4289Z" fill="#1F1F39"/>
<path d="M7.37743 17.5262C7.69012 17.3991 11.5634 16.0093 12.432 16.2002C13.0369 16.3739 13.5871 16.7001 14.0297 17.1475C11.5254 18.4044 9.96126 19.1557 8.81612 18.5019C8.22576 18.1625 7.77713 17.9476 7.52485 17.8008C7.27256 17.6539 7.22362 17.5849 7.37743 17.5262Z" fill="white"/>
<path opacity="0.09" d="M7.37733 17.5262C7.69003 17.3992 11.5633 16.0093 12.4319 16.2002C12.1876 16.7097 10.3735 17.9124 7.52475 17.8008C7.28787 17.6652 7.22352 17.585 7.37733 17.5262Z" fill="#1F1F39"/>
<path d="M5.66917 16.4526C6.3295 16.4106 6.97865 16.2617 7.59124 16.0117L7.6168 16.0039C8.91223 15.498 10.2876 15.0317 10.7237 15.1266C11.3743 15.3376 11.9618 15.7079 12.4328 16.2038C9.92962 17.4643 8.25412 18.0858 7.10676 17.4247C6.5164 17.0852 6.06777 16.8704 5.81548 16.7235L5.73698 16.6755C5.56572 16.5719 5.53364 16.5058 5.66917 16.4526Z" fill="white"/>
<path opacity="0.09" d="M5.66917 16.4526C6.3295 16.4106 6.97865 16.2617 7.59124 16.0117L7.6168 16.0039C8.94337 15.5085 10.3389 15.056 10.775 15.151C10.5308 15.6605 8.06492 16.7419 5.86424 16.7526L5.7381 16.6792C5.56573 16.5719 5.53364 16.5058 5.66917 16.4526Z" fill="#1F1F39"/>
<path d="M3.97273 15.4038C4.29019 15.2793 8.15866 13.8869 9.0309 14.0767C9.67245 14.2833 10.2537 14.6439 10.7238 15.1268C8.21951 16.3837 6.55657 17.0333 5.41509 16.3784C4.82219 16.0437 4.37239 15.8252 4.12011 15.6784C3.86782 15.5315 3.81893 15.4625 3.97273 15.4038Z" fill="white"/>
<path opacity="0.23" d="M3.97279 15.4037C4.29025 15.2792 8.15871 13.8868 9.03095 14.0766C8.78668 14.5861 5.99777 14.9075 4.12016 15.6783C3.89059 15.5405 3.81898 15.4624 3.97279 15.4037Z" fill="#1F1F39"/>
<path d="M7.87682 13.118C7.97092 13.3668 8.12995 13.5859 8.33735 13.7524C9.54153 14.8235 69.377 50.977 69.5282 51.1985C69.5393 51.235 69.607 51.2344 69.6885 51.2136C69.8021 51.1837 69.9102 51.136 70.0088 51.0723C70.5097 50.7762 71.1232 50.1024 70.4539 49.5035C70.3937 49.4487 70.3292 49.3989 70.2609 49.3546C70.2609 49.3546 10.7174 12.166 9.54141 12.0407C8.60879 11.9411 7.64575 12.3977 7.87682 13.118Z" fill="#543237"/>
<path d="M13.8055 10.3085C13.8364 10.6465 14.3508 14.7262 14.9162 15.4166C15.3323 15.871 15.8566 16.2128 16.4402 16.4103C16.4295 13.6187 16.426 11.875 15.3297 11.1584C14.7608 10.7845 14.3652 10.4816 14.1191 10.3289C13.873 10.1762 13.7869 10.1425 13.8055 10.3085Z" fill="white"/>
<path opacity="0.09" d="M13.8056 10.3084C13.8365 10.6464 14.3509 14.7261 14.9163 15.4165C15.2614 14.9761 15.3082 11.2448 14.1159 10.3178C13.8855 10.1643 13.787 10.1424 13.8056 10.3084Z" fill="#1F1F39"/>
<path d="M12.3141 9.36874C12.3451 9.70668 12.8594 13.7864 13.4248 14.4768C13.8537 14.9364 14.3935 15.2781 14.9923 15.4692C14.9816 12.6777 14.9383 10.9341 13.8361 10.2113C13.2672 9.83742 12.8716 9.53454 12.6255 9.38182C12.3794 9.2291 12.2967 9.20636 12.3141 9.36874Z" fill="white"/>
<path opacity="0.09" d="M12.3142 9.3687C12.3451 9.70665 12.8595 13.7863 13.4248 14.4768C13.77 14.0364 14.0159 11.8655 12.6233 9.37448C12.3952 9.22827 12.2967 9.20632 12.3142 9.3687Z" fill="#1F1F39"/>
<path d="M10.5821 8.33449C10.8459 8.94051 11.0084 9.58568 11.0633 10.2443C11.0633 10.2443 11.0688 10.2626 11.0722 10.2735C11.2085 11.6535 11.4145 13.092 11.7001 13.4403C12.1826 13.9236 12.7778 14.279 13.4321 14.4746C13.4214 11.683 13.2136 9.89762 12.1114 9.17487C11.5414 8.79729 11.1458 8.4944 10.9045 8.34422L10.826 8.29623C10.6416 8.18864 10.5691 8.18673 10.5821 8.33449Z" fill="white"/>
<path opacity="0.09" d="M10.5821 8.33441C10.8459 8.94042 11.0084 9.5856 11.0633 10.2442C11.0633 10.2442 11.0688 10.2625 11.0722 10.2735C11.232 11.6782 11.4607 13.1258 11.7452 13.4704C12.0904 13.0301 11.9322 10.3313 10.9448 8.37179L10.8238 8.28885C10.6416 8.18857 10.5691 8.18665 10.5821 8.33441Z" fill="#1F1F39"/>
<path d="M8.87687 7.29618C8.90892 7.63778 9.4233 11.7175 9.99121 12.4031C10.4647 12.8838 11.049 13.2407 11.6928 13.4426C11.6821 10.651 11.4974 8.86264 10.4025 8.13767C9.83357 7.76374 9.43803 7.46085 9.19194 7.30813C8.94585 7.15541 8.86307 7.13269 8.87687 7.29618Z" fill="white"/>
<path opacity="0.23" d="M8.87686 7.29606C8.90891 7.63766 9.4233 11.7173 9.99121 12.403C10.3364 11.9626 9.35483 9.32663 9.19082 7.30436C8.96158 7.1545 8.86306 7.13257 8.87686 7.29606Z" fill="#1F1F39"/>
<path opacity="0.47" d="M7.87695 13.118C7.97105 13.3668 8.13008 13.5859 8.33748 13.7525C9.54166 14.8235 69.3771 50.977 69.5283 51.1985C69.5725 51.265 69.7794 51.21 70.009 51.0723C62.9999 46.5767 13.4409 16.2885 7.87695 13.118Z" fill="#1F1F39"/>
<path d="M67.1091 51.6191C67.0475 52.3486 74.6475 53.6939 75.2419 53.2855L75.2675 53.2777C75.6737 52.8148 71.0491 46.7474 70.6649 46.8363C70.2807 46.9252 70.1035 49.0593 69.5563 50.0562L69.538 50.0618C68.9889 51.0393 67.1481 51.1042 67.1091 51.6191Z" fill="white"/>
<path opacity="0.22" d="M67.109 51.6191C67.0474 52.3485 74.6473 53.6938 75.2418 53.2854C73.0032 51.5309 70.8186 50.3868 69.539 50.0654C68.9888 51.0392 67.148 51.1041 67.109 51.6191Z" fill="#1F1F39"/>
</g>
<defs>
<clipPath id="clip0_68388_4">
<rect width="126" height="103" fill="white"/>
</clipPath>
</defs>
</svg>
